<svg id="Layer_3" data-name="Layer 3" xmlns="http://www.w3.org/2000/svg" viewBox="0 0 882.03 273.73"><defs><style>.cls-1{fill:#6c62ff;}.cls-2{fill:#3a434c;}</style></defs><path class="cls-1" d="M390.53,423.93l-28,65.14V590.45a48.12,48.12,0,0,1-48.12,48.12h-103v0l-45,36.45a8.36,8.36,0,0,1-5.36,1.82,13.11,13.11,0,0,1-13.11-13.12V638.57h-.83A48.16,48.16,0,0,1,99,590.45V476.83a48.13,48.13,0,0,1,48.13-48.13H303.83l64.31-25.56L224.37,546.89l-39-38.94a5,5,0,0,0-7.07,0l-14.13,14.13a5,5,0,0,0,0,7.07l53.08,53.11a10,10,0,0,0,14.15,0l158.7-158.72Z" transform="translate(-98.98 -403.14)"/><path class="cls-2" d="M443.64,520.85c13.5,0,23.81,8.08,25.73,21.8H459.05c-1.38-8.4-7.54-13.29-15.84-13.29-11.16,0-18.49,8.29-18.49,22.64s7.33,21.69,18.18,21.69a16.55,16.55,0,0,0,16.15-13.29h10.32c-2.66,12.33-12.66,21.79-26.79,21.79-16.8,0-28.07-12.22-28.07-30.19S425.78,520.85,443.64,520.85Z" transform="translate(-98.98 -403.14)"/><path class="cls-2" d="M482.86,500h9.68v31c3.83-6.81,10.52-10.21,18.28-10.21,12,0,22.12,8.3,22.12,24.77v35.51h-9.68V547.22c0-11.91-6.06-18.07-15.31-18.07s-15.41,6.16-15.41,18.07v33.91h-9.68Z" transform="translate(-98.98 -403.14)"/><path class="cls-2" d="M597.15,521.92h9.67v59.21h-9.67V570.39a23.47,23.47,0,0,1-20.95,11.8c-17.64,0-28.7-12.12-28.7-30.72,0-18.39,10.74-30.62,28.7-30.62,9.25,0,16.69,4.26,20.95,11.7Zm-19.88,52C590,573.9,597,563.59,597,551.47c0-11.91-7-22.43-19.77-22.32-13,.1-19.57,9.88-19.57,22.32S564.3,573.9,577.27,573.9Z" transform="translate(-98.98 -403.14)"/><path class="cls-2" d="M627,529.68h-7.76v-7.76H627V507.35h9.67v14.57h15.63v7.76H636.69v36.46c0,5.42,1.81,7.55,7.34,7.55a19.53,19.53,0,0,0,8.29-2V580a23.15,23.15,0,0,1-10.21,2.23c-10.1,0-15.09-4.89-15.09-15Z" transform="translate(-98.98 -403.14)"/><path class="cls-2" d="M664.12,536.8h-6.59V521.92h6.59V507.35H682.3v14.57h11.9V536.8H682.3v23.6c0,4.15,1.48,6.27,5.52,6.27a12.14,12.14,0,0,0,6.49-2.12v15c-2.55,1.7-7.12,2.65-11.38,2.65-12.33,0-18.81-6.8-18.81-19.56Z" transform="translate(-98.98 -403.14)"/><path class="cls-2" d="M703.34,507.78A10.64,10.64,0,1,1,714,518.41,10.56,10.56,0,0,1,703.34,507.78Zm1.6,14.14H723v59.21H704.94Z" transform="translate(-98.98 -403.14)"/><path class="cls-2" d="M764.36,520.85c14.46,0,25.84,8.72,28.18,23.18H772.87c-1.49-4.89-4.25-7.66-9.14-7.66-6.17,0-11,6.06-11,15.1s5,15.2,11.16,15.2c4.36,0,7.87-2.66,8.93-7.65h19.67c-3.09,15.31-13.61,23.17-28.49,23.17-16.69,0-29.88-13.07-29.88-30.83S747.36,520.85,764.36,520.85Z" transform="translate(-98.98 -403.14)"/><path class="cls-2" d="M803.17,500h18.07v81.11H803.17Zm36.35,21.9h20.73L841.33,550,861,581.13H840L821.66,551Z" transform="translate(-98.98 -403.14)"/><path class="cls-2" d="M867.91,575.71a6.4,6.4,0,0,1,6.38-6.38,6.43,6.43,0,0,1,0,12.86A6.42,6.42,0,0,1,867.91,575.71Z" transform="translate(-98.98 -403.14)"/><path class="cls-2" d="M894,507.25a6.44,6.44,0,0,1,6.49-6.49,6.54,6.54,0,0,1,0,13.08A6.47,6.47,0,0,1,894,507.25Zm1.6,14.67h9.67v59.21h-9.67Z" transform="translate(-98.98 -403.14)"/><path class="cls-2" d="M981,551.58c0,18.17-13.82,30.61-30.83,30.61-17.23,0-30.41-12.44-30.41-30.72s13.93-30.62,31.15-30.62C967.94,520.85,981,533.19,981,551.58Zm-51-.11c0,14.14,9.25,22.22,20.2,22.22,10.73,0,20.62-8.08,20.62-22.11,0-14.25-9.35-22.22-20.2-22.22S930,537.33,930,551.47Z" transform="translate(-98.98 -403.14)"/></svg>